<?xml version="1.0" encoding="UTF-8"?>
<svg id="Lager_1" xmlns="http://www.w3.org/2000/svg" viewBox="0 0 55.32 41.02">
  <path d="M0,25.24C.94,16.42,4.36,8.8,12.25,3.77c2.97-1.89,6.29-3.04,9.35-.33,3.21,2.84,5.53,6.68,4.24,10.91-2.83,9.27-7.29,17.85-14.49,24.52-1.72,1.59-5.01,2.37-7.41,2.09-2.84-.33-2.48-3.51-2.71-5.87-.31-3.23-.8-6.44-1.23-9.86Z"/>
  <path d="M55.32,9.59c-1.02,3.3-1.43,6.98-3.18,9.82-3.51,5.69-7.67,10.99-11.75,16.31-.93,1.21-2.52,2.06-3.97,2.66-3.94,1.63-7.01-.22-6.73-4.47.49-7.57,1.1-15.18,2.46-22.62C33.46,4.13,39.91-.48,46.39.04c5.45.44,8.6,3.95,8.93,9.55Z"/>
</svg>