<?xml version="1.0" encoding="UTF-8"?>
<svg id="Lager_1" xmlns="http://www.w3.org/2000/svg" viewBox="0 0 485.73 355.74">
  <defs>
    <style>
      .cls-1 {
        fill: #fff;
      }
    </style>
  </defs>
  <path class="cls-1" d="M129.02,355.17c-30.8,4.51-75.05-17.62-44.24-78.38,20.55-40.53,104-141.02,60.09-163.49-16.92-8.66-32.68-5.96-44.94.51-64.34,33.96,4.09,93.36-27.91,128.43-16.16,17.71-38.63,17.08-50.12,9.72-11.98-7.67-32.26-28.11-15.58-78.83,15.59-47.4,47.94-67.89,69.11-76.17,23.49-9.19,43.74-15.06,67.74-8.94,12.78,3.26,24.17,8.51,34.21,25.19,21.58,35.85-44.56,138.73-50.04,160.34-5.79,22.81,20.78,29.56,40.34,20.77,47.34-21.3,103.06-147.49,96.94-191.23-4.17-29.8-47.23,9.45-73.53,1.45-28.2-8.58-18.48-41.91-7.23-54.81,21.45-24.6,56.85-14.3,82.3,8.09,32.27,28.39,62.79-21.21,127.15-20.77,54.6.37,114.89,30.04,84.04,68.94-22.67,28.58-56.47,11.66-77.15-9.79-11.7-12.14-48.06-19.43-88.09-5.36-19.62,6.9-24,59.93-31.1,88.49-14.04,56.5-58,162.09-151.97,175.85h-.02Z"/>
  <path class="cls-1" d="M129.05,0c17.79-.02,32.34,14.54,32.31,32.33-.03,17.75-14.47,32.25-32.16,32.29-17.94.04-32.53-14.48-32.5-32.33C96.72,14.45,111.19.02,129.05,0Z"/>
</svg>