<?xml version="1.0" encoding="UTF-8"?>
<svg id="Lager_1" data-name="Lager 1" xmlns="http://www.w3.org/2000/svg" viewBox="0 0 1262 770.1">
  <defs>
    <style>
      .cls-1 {
        fill: #857d5f;
      }
    </style>
  </defs>
  <g>
    <path class="cls-1" d="M64.65,610.95l3.2-5.6c4.2,3.3,11.3,5.9,18.7,5.9,10,0,14.1-3.4,14.1-8.6,0-13.7-34.1-2.9-34.1-23.7,0-8.6,7.4-15,20.8-15,6.8,0,14.2,1.9,18.6,4.9l-3.1,5.7c-4.6-3.2-10.1-4.5-15.5-4.5-9.5,0-13.7,3.7-13.7,8.7,0,14.2,34.1,3.5,34.1,23.7,0,9.1-8,15-21.7,15-8.7,0-17.1-2.8-21.4-6.5Z"/>
    <path class="cls-1" d="M170.65,613.75c-2.8,2.5-7,3.7-11.1,3.7-9.9,0-15.4-5.6-15.4-15.3v-31.8h-9.4v-6h9.4v-11.5h7.1v11.5h16v6h-16v31.4c0,6.2,3.2,9.6,9.1,9.6,2.9,0,5.8-.9,7.8-2.7l2.5,5.1Z"/>
    <path class="cls-1" d="M253.05,564.35v52.6h-6.8v-9.6c-3.7,6.4-10.5,10.1-18.9,10.1-13.4,0-22.2-7.5-22.2-22.6v-30.5h7.1v29.8c0,11.2,5.8,16.9,15.8,16.9,11,0,17.9-7.1,17.9-19.1v-27.6h7.1Z"/>
    <path class="cls-1" d="M343.05,542.75v74.2h-6.8v-10.4c-4.3,7.1-11.6,10.9-20.3,10.9-15,0-26.2-10.9-26.2-26.8s11.2-26.7,26.2-26.7c8.4,0,15.6,3.6,20,10.4v-31.6h7.1ZM336.05,590.65c0-12.3-8.4-20.5-19.5-20.5s-19.6,8.2-19.6,20.5,8.4,20.5,19.6,20.5,19.5-8.2,19.5-20.5Z"/>
    <path class="cls-1" d="M383.35,547.75c0-2.7,2.3-5,5.2-5s5.2,2.2,5.2,4.9c0,2.9-2.2,5.2-5.2,5.2s-5.2-2.3-5.2-5.1ZM384.95,564.35h7.1v52.6h-7.1v-52.6Z"/>
    <path class="cls-1" d="M428.65,590.65c0-15.6,11.4-26.7,26.8-26.7s26.7,11.1,26.7,26.7-11.3,26.8-26.7,26.8-26.8-11.2-26.8-26.8ZM474.95,590.65c0-12.3-8.3-20.5-19.5-20.5s-19.6,8.2-19.6,20.5,8.4,20.5,19.6,20.5,19.5-8.2,19.5-20.5Z"/>
    <path class="cls-1" d="M654.65,586.35v30.6h-12.5v-29c0-9.5-4.4-14.1-12-14.1-8.2,0-13.9,5.4-13.9,16v27.1h-12.5v-29c0-9.5-4.4-14.1-12-14.1-8.3,0-13.9,5.4-13.9,16v27.1h-12.5v-53.4h11.9v6.8c4-4.8,10.2-7.4,17.5-7.4,7.8,0,14.3,2.9,18,8.9,4.3-5.5,11.5-8.9,20-8.9,12.9,0,21.9,7.3,21.9,23.4Z"/>
    <path class="cls-1" d="M745.45,563.55v53.4h-11.9v-6.9c-4.2,5.1-10.4,7.6-17.7,7.6-15.6,0-27-10.8-27-27.4s11.4-27.3,27-27.3c6.8,0,12.8,2.3,17.1,7.1v-6.5h12.5ZM733.15,590.25c0-10.2-6.8-16.7-15.9-16.7s-15.8,6.5-15.8,16.7,6.8,16.7,15.8,16.7,15.9-6.5,15.9-16.7Z"/>
    <path class="cls-1" d="M873.25,586.35v30.6h-12.5v-29c0-9.5-4.4-14.1-12-14.1-8.2,0-13.9,5.4-13.9,16v27.1h-12.5v-29c0-9.5-4.4-14.1-12-14.1-8.3,0-13.9,5.4-13.9,16v27.1h-12.5v-53.4h11.9v6.8c4-4.8,10.2-7.4,17.5-7.4,7.8,0,14.3,2.9,18,8.9,4.3-5.5,11.5-8.9,20-8.9,12.9,0,21.9,7.3,21.9,23.4Z"/>
    <path class="cls-1" d="M964.04,563.55v53.4h-11.9v-6.9c-4.2,5.1-10.4,7.6-17.7,7.6-15.6,0-27-10.8-27-27.4s11.4-27.3,27-27.3c6.8,0,12.8,2.3,17.1,7.1v-6.5h12.5ZM951.74,590.25c0-10.2-6.8-16.7-15.9-16.7s-15.8,6.5-15.8,16.7,6.8,16.7,15.8,16.7,15.9-6.5,15.9-16.7Z"/>
    <path class="cls-1" d="M1091.85,586.35v30.6h-12.5v-29c0-9.5-4.4-14.1-12-14.1-8.2,0-13.9,5.4-13.9,16v27.1h-12.5v-29c0-9.5-4.4-14.1-12-14.1-8.3,0-13.9,5.4-13.9,16v27.1h-12.5v-53.4h11.9v6.8c4-4.8,10.2-7.4,17.5-7.4,7.8,0,14.3,2.9,18,8.9,4.3-5.5,11.5-8.9,20-8.9,12.9,0,21.9,7.3,21.9,23.4Z"/>
    <path class="cls-1" d="M1182.64,563.55v53.4h-11.9v-6.9c-4.2,5.1-10.4,7.6-17.7,7.6-15.6,0-27-10.8-27-27.4s11.4-27.3,27-27.3c6.8,0,12.8,2.3,17.1,7.1v-6.5h12.5ZM1170.34,590.25c0-10.2-6.8-16.7-15.9-16.7s-15.8,6.5-15.8,16.7,6.8,16.7,15.8,16.7,15.9-6.5,15.9-16.7Z"/>
  </g>
  <g>
    <path class="cls-1" d="M254.04,445.34c-.28.04-.55.09-.81.13-.04,0-.08.02-.13.02-.31.05-.61.11-.9.16.59-.16,1.21-.27,1.84-.31Z"/>
    <path class="cls-1" d="M1026.74,445.88c.82,9.74-18.29,10.78-31.07,11.15-47.65,1.4-78.08-21.68-102.22-60.79-12.27-19.89-22.05-46.84-43.62-60.39-10.28-6.45-28.34-11.73-40.19-8.4-5,1.41-12.29,7.93-14.84,12.56-15.1,27.33,5.86,70.26-30.46,90.04-23.65,12.89-55.62-4.93-68.96-25.68-28.76-44.75.72-103.4-40.51-153.02-74.8-90.03-195.33-43.22-223.85,61.08-7.68,28.08-4.7,68.83-22.01,91.19-21.04,27.17-94.56,49.91-128.23,56.24-8.07,1.51-16.27,1.84-24.35,3.07-.32.05-.64.1-.96.15-.29.03-.59.05-.89.05-3.25,0-6.11-1.78-7.64-4.43-.1-.17-.2-.36-.29-.54-.21-.42-.38-.86-.52-1.31-.26-.83-.4-1.71-.4-2.63,0-.2.01-.41.02-.61,0-.1.02-.2.03-.29,0-.02,0-.03.01-.04.01-.19.03-.37.07-.56.03-.21.07-.41.13-.62,0-.03.01-.06.02-.09h0c.01-.06.03-.11.05-.16.01-.09.04-.18.07-.26.04-.14.09-.27.14-.41.05-.17.12-.33.19-.48.01-.02.02-.04.02-.06.06-.14.12-.27.2-.4.03-.08.08-.16.12-.24h0c.05-.09.1-.17.15-.26.02-.06.05-.11.09-.16.07-.1.13-.2.2-.31.16-.23.33-.46.51-.68.18-.22.37-.43.57-.63.16-.16.33-.31.5-.46.15-.13.3-.25.46-.37,1.11-.82,2.4-1.4,3.82-1.64.05,0,.09-.01.13-.02.26-.04.53-.09.81-.13,6.23-.87,14.9-.76,21.21-1.97,31.27-5.99,72.74-18.94,100.14-35.01,38.55-22.63,27.29-50.66,35.52-87.72,15.17-68.3,71.38-135.41,146.32-134.2,67.2,1.09,131.94,53.31,139.72,121.44,3.16,27.66-2.73,68.82,15.11,91.71,3.93,5.03,17.14,14.06,23.18,16.07,16.23,5.4,30.44-1.59,34.39-18.66,5.3-22.95-1.86-56.08,16.72-74.56,16.81-16.7,41.22-15.3,61.67-6.68,46.19,19.48,52.85,82.02,91.97,108.9,13.29,9.13,37.41,16.75,53.47,16.8,13.3.04,32.33-6.92,33.28,4.42Z"/>
    <path class="cls-1" d="M253.1,445.49c-1.42.24-2.71.82-3.82,1.64.86-.67,1.85-1.17,2.92-1.48.29-.05.59-.11.9-.16Z"/>
  </g>
  <circle class="cls-1" cx="557.55" cy="227.38" r="8.85"/>
  <circle class="cls-1" cx="811.1" cy="351.05" r="8.85"/>
</svg>